<?xml version="1.0" encoding="UTF-8" standalone="no"?>
<!DOCTYPE svg PUBLIC "-//W3C//DTD SVG 1.1//EN" "http://www.w3.org/Graphics/SVG/1.1/DTD/svg11.dtd">
<!-- Generated by Microsoft Visio, SVG Export Use Case Diagram.svg Page-1 -->
<svg xmlns="http://www.w3.org/2000/svg" xmlns:xlink="http://www.w3.org/1999/xlink" xmlns:ev="http://www.w3.org/2001/xml-events"
		xmlns:v="http://schemas.microsoft.com/visio/2003/SVGExtensions/" width="11in" height="8.5in" viewBox="0 0 792 612"
		xml:space="preserve" color-interpolation-filters="sRGB" class="st13">
	<v:documentProperties v:langID="1033" v:viewMarkup="false">
		<v:userDefs>
			<v:ud v:nameU="msvNoAutoConnect" v:prompt="" v:val="VT0(0):26"/>
		</v:userDefs>
	</v:documentProperties>

	<style type="text/css">
	<![CDATA[
		.st1 {fill:#73ae42;stroke:#ffffff;stroke-linecap:round;stroke-linejoin:round;stroke-width:0.5}
		.st2 {fill:#73ae42;font-family:Calibri;font-size:1.00001em}
		.st3 {fill:#5b9bd5;stroke:#ffffff;stroke-linecap:round;stroke-linejoin:round;stroke-width:0.5}
		.st4 {fill:#ffffff;font-family:Calibri;font-size:1.00001em}
		.st5 {marker-end:url(#mrkr1-12);stroke:#5592c9;stroke-dasharray:3.5,2.5;stroke-linecap:round;stroke-linejoin:round;stroke-width:0.5}
		.st6 {fill:#5592c9;fill-opacity:1;stroke:#5592c9;stroke-opacity:1;stroke-width:0.16556291390728}
		.st7 {fill:#ffffff;stroke:none;stroke-linecap:butt;stroke-width:7.2}
		.st8 {fill:#41719d;font-family:Calibri;font-size:0.666664em}
		.st9 {stroke:#5592c9;stroke-linecap:round;stroke-linejoin:round;stroke-width:0.5}
		.st10 {marker-end:url(#mrkr14-159);stroke:#5592c9;stroke-linecap:round;stroke-linejoin:round;stroke-width:0.5}
		.st11 {fill:none;stroke:none;stroke-linecap:round;stroke-linejoin:round;stroke-width:0.5}
		.st12 {fill:#5b9bd5;font-family:Calibri;font-size:1.00001em}
		.st13 {fill:none;fill-rule:evenodd;font-size:12px;overflow:visible;stroke-linecap:square;stroke-miterlimit:3}
	]]>
	</style>

	<defs id="Markers">
		<g id="lend1">
			<path d="M 1 -1 L 0 0 L 1 1 " style="stroke-linecap:round;stroke-linejoin:round;fill:none"/>
		</g>
		<marker id="mrkr1-12" class="st6" v:arrowType="1" v:arrowSize="2" orient="auto" markerUnits="strokeWidth"
				overflow="visible">
			<use xlink:href="#lend1" transform="scale(-6.04,-6.04) "/>
		</marker>
		<g id="lend14">
			<path d="M 3 -1 L 0 0 L 3 1 L 3 -1 " style="stroke-linecap:round;stroke-linejoin:round;fill:none"/>
		</g>
		<marker id="mrkr14-159" class="st6" v:arrowType="14" v:arrowSize="2" v:setback="18.12" refX="-18.12" orient="auto"
				markerUnits="strokeWidth" overflow="visible">
			<use xlink:href="#lend14" transform="scale(-6.04,-6.04) "/>
		</marker>
	</defs>
	<g v:mID="0" v:index="1" v:groupContext="foregroundPage">
		<v:userDefs>
			<v:ud v:nameU="msvThemeOrder" v:val="VT0(0):26"/>
		</v:userDefs>
		<title>Page-1</title>
		<v:pageProperties v:drawingScale="1" v:pageScale="1" v:drawingUnits="0" v:shadowOffsetX="9" v:shadowOffsetY="-9"/>
		<v:layer v:name="Connector" v:index="0"/>
		<v:layer v:name="Container" v:index="1"/>
		<g id="shape1-1" v:mID="1" v:groupContext="shape" transform="translate(82.125,-420.75)">
			<title>Actor</title>
			<desc>User</desc>
			<v:userDefs>
				<v:ud v:nameU="visVersion" v:prompt="" v:val="VT0(15):26"/>
			</v:userDefs>
			<v:textBlock v:margins="rect(4,4,4,4)"/>
			<v:textRect cx="18" cy="623.202" width="33.27" height="22.4037"/>
			<path d="M7.2 612 L7.2 576 L7.2 590.4 L0 590.4 L0 561.6 L3.6 558 L32.4 558 L36 561.6 L36 590.4 L28.8 590.4 L28.8 576
						 L28.8 612 L18 612 L18 583.2 L18 612 L7.2 612 ZM25.2 547.2 A7.2 7.2 -180 1 0 10.8 547.2 A7.2 7.2 -180 1 0
						 25.2 547.2 Z" class="st1"/>
			<text x="6.73" y="626.8" class="st2" v:langID="1033"><v:paragraph v:horizAlign="1"/><v:tabList/>User</text>		</g>
		<g id="shape14-4" v:mID="14" v:groupContext="shape" transform="translate(205.875,-252)">
			<title>Use Case.14</title>
			<desc>Archive Receipt</desc>
			<v:userDefs>
				<v:ud v:nameU="visVersion" v:prompt="" v:val="VT0(15):26"/>
			</v:userDefs>
			<v:textBlock v:margins="rect(4,4,4,4)"/>
			<v:textRect cx="54" cy="594" width="108" height="36"/>
			<ellipse cx="54" cy="594" rx="54" ry="18" class="st3"/>
			<text x="16.01" y="597.6" class="st4" v:langID="1033"><v:paragraph v:horizAlign="1"/><v:tabList/>Archive Receipt</text>		</g>
		<g id="shape22-7" v:mID="22" v:groupContext="shape" v:layerMember="0" transform="translate(295.875,-531)">
			<title>Extend</title>
			<desc>&#60;&#60;extend&#62;&#62;</desc>
			<v:userDefs>
				<v:ud v:nameU="visVersion" v:prompt="" v:val="VT0(15):26"/>
			</v:userDefs>
			<v:textBlock v:margins="rect(4,4,4,4)"/>
			<v:textRect cx="-42.75" cy="603" width="48.27" height="17.6036"/>
			<path d="M0 603 L-85.5 603" class="st5"/>
			<rect v:rectContext="textBkgnd" x="-61.9745" y="598.2" width="38.4491" height="9.59985" class="st7"/>
			<text x="-61.97" y="605.4" class="st8" v:langID="1033"><v:paragraph v:horizAlign="1"/><v:tabList/>&#60;&#60;extend&#62;&#62;</text>		</g>
		<g id="group24-15" transform="translate(102.375,-522)" v:mID="24" v:groupContext="group">
			<title>Sheet.24</title>
			<g id="shape5-16" v:mID="5" v:groupContext="shape" transform="translate(193.5,0)">
				<title>Use Case</title>
				<desc>Register</desc>
				<v:userDefs>
					<v:ud v:nameU="visVersion" v:prompt="" v:val="VT0(15):26"/>
				</v:userDefs>
				<v:textBlock v:margins="rect(4,4,4,4)"/>
				<v:textRect cx="54" cy="594" width="108" height="36"/>
				<ellipse cx="54" cy="594" rx="54" ry="18" class="st3"/>
				<text x="34.12" y="597.6" class="st4" v:langID="1033"><v:paragraph v:horizAlign="1"/><v:tabList/>Register</text>			</g>
			<g id="shape6-19" v:mID="6" v:groupContext="shape">
				<title>Use Case.6</title>
				<desc>Login</desc>
				<v:userDefs>
					<v:ud v:nameU="visVersion" v:prompt="" v:val="VT0(15):26"/>
				</v:userDefs>
				<v:textBlock v:margins="rect(4,4,4,4)"/>
				<v:textRect cx="54" cy="594" width="108" height="36"/>
				<ellipse cx="54" cy="594" rx="54" ry="18" class="st3"/>
				<text x="40.96" y="597.6" class="st4" v:langID="1033"><v:paragraph v:horizAlign="1"/><v:tabList/>Login</text>			</g>
		</g>
		<g id="shape28-22" v:mID="28" v:groupContext="shape" v:layerMember="0" transform="translate(393.084,-214.875)">
			<title>Extend.28</title>
			<desc>&#60;&#60;extend&#62;&#62;</desc>
			<v:userDefs>
				<v:ud v:nameU="visVersion" v:prompt="" v:val="VT0(15):26"/>
			</v:userDefs>
			<v:textBlock v:margins="rect(4,4,4,4)"/>
			<v:textRect cx="-40.9589" cy="621" width="48.27" height="17.6036"/>
			<path d="M0 616.5 L-81.92 625.5" class="st5"/>
			<rect v:rectContext="textBkgnd" x="-60.1834" y="616.2" width="38.4491" height="9.59985" class="st7"/>
			<text x="-60.18" y="623.4" class="st8" v:langID="1033"><v:paragraph v:horizAlign="1"/><v:tabList/>&#60;&#60;extend&#62;&#62;</text>		</g>
		<g id="shape35-29" v:mID="35" v:groupContext="shape" transform="translate(475.875,-522)">
			<title>Use Case.35</title>
			<desc>Enter User Info</desc>
			<v:userDefs>
				<v:ud v:nameU="visVersion" v:prompt="" v:val="VT0(15):26"/>
			</v:userDefs>
			<v:textBlock v:margins="rect(4,4,4,4)"/>
			<v:textRect cx="54" cy="594" width="108" height="36"/>
			<ellipse cx="54" cy="594" rx="54" ry="18" class="st3"/>
			<text x="17.19" y="597.6" class="st4" v:langID="1033"><v:paragraph v:horizAlign="1"/><v:tabList/>Enter User Info</text>		</g>
		<g id="shape36-32" v:mID="36" v:groupContext="shape" v:layerMember="0" transform="translate(403.875,-531)">
			<title>Include</title>
			<desc>&#60;&#60;include&#62;&#62;</desc>
			<v:userDefs>
				<v:ud v:nameU="visVersion" v:prompt="" v:val="VT0(15):26"/>
			</v:userDefs>
			<v:textBlock v:margins="rect(4,4,4,4)"/>
			<v:textRect cx="36" cy="603" width="49.4" height="17.6036"/>
			<path d="M0 603 L72 603" class="st5"/>
			<rect v:rectContext="textBkgnd" x="16.2092" y="598.2" width="39.5818" height="9.59985" class="st7"/>
			<text x="16.21" y="605.4" class="st8" v:langID="1033"><v:paragraph v:horizAlign="1"/><v:tabList/>&#60;&#60;include&#62;&#62;</text>		</g>
		<g id="shape37-39" v:mID="37" v:groupContext="shape" transform="translate(475.875,-477)">
			<title>Use Case.37</title>
			<desc>Enter Phone Number</desc>
			<v:userDefs>
				<v:ud v:nameU="visVersion" v:prompt="" v:val="VT0(15):26"/>
			</v:userDefs>
			<v:textBlock v:margins="rect(4,4,4,4)"/>
			<v:textRect cx="56.8421" cy="594" width="113.69" height="36"/>
			<ellipse cx="56.8421" cy="594" rx="56.8421" ry="18" class="st3"/>
			<text x="5.36" y="597.6" class="st4" v:langID="1033"><v:paragraph v:horizAlign="1"/><v:tabList/>Enter Phone Number</text>		</g>
		<g id="shape38-42" v:mID="38" v:groupContext="shape" v:layerMember="0" transform="translate(393.317,-529.308)">
			<title>Include.38</title>
			<desc>&#60;&#60;include&#62;&#62;</desc>
			<v:userDefs>
				<v:ud v:nameU="visVersion" v:prompt="" v:val="VT0(15):26"/>
			</v:userDefs>
			<v:textBlock v:margins="rect(4,4,4,4)"/>
			<v:textRect cx="47.2596" cy="623.631" width="49.4" height="17.6036"/>
			<path d="M0 612 L94.52 635.26" class="st5"/>
			<rect v:rectContext="textBkgnd" x="27.4688" y="618.832" width="39.5818" height="9.59985" class="st7"/>
			<text x="27.47" y="626.03" class="st8" v:langID="1033"><v:paragraph v:horizAlign="1"/><v:tabList/>&#60;&#60;include&#62;&#62;</text>		</g>
		<g id="shape41-49" v:mID="41" v:groupContext="shape" transform="translate(475.875,-432)">
			<title>Use Case.41</title>
			<desc>Enter Social Media Account</desc>
			<v:userDefs>
				<v:ud v:nameU="visVersion" v:prompt="" v:val="VT0(15):26"/>
			</v:userDefs>
			<v:textBlock v:margins="rect(4,4,4,4)"/>
			<v:textRect cx="72.2259" cy="594" width="144.46" height="36"/>
			<ellipse cx="72.2259" cy="594" rx="72.2259" ry="18" class="st3"/>
			<text x="5.36" y="597.6" class="st4" v:langID="1033"><v:paragraph v:horizAlign="1"/><v:tabList/>Enter Social Media Account</text>		</g>
		<g id="shape42-52" v:mID="42" v:groupContext="shape" v:layerMember="0" transform="translate(381.832,-525.491)">
			<title>Include.42</title>
			<desc>&#60;&#60;include&#62;&#62;</desc>
			<v:userDefs>
				<v:ud v:nameU="visVersion" v:prompt="" v:val="VT0(15):26"/>
			</v:userDefs>
			<v:textBlock v:margins="rect(4,4,4,4)"/>
			<v:textRect cx="65.7574" cy="641.856" width="49.4" height="17.6036"/>
			<path d="M0 612 L131.51 671.71" class="st5"/>
			<rect v:rectContext="textBkgnd" x="45.9666" y="637.056" width="39.5818" height="9.59985" class="st7"/>
			<text x="45.97" y="644.26" class="st8" v:langID="1033"><v:paragraph v:horizAlign="1"/><v:tabList/>&#60;&#60;include&#62;&#62;</text>		</g>
		<g id="shape45-59" v:mID="45" v:groupContext="shape" v:layerMember="0" transform="translate(327.375,-447.75)">
			<title>Extend.45</title>
			<desc>&#60;&#60;extend&#62;&#62;</desc>
			<v:userDefs>
				<v:ud v:nameU="visVersion" v:prompt="" v:val="VT0(15):26"/>
			</v:userDefs>
			<v:textBlock v:margins="rect(4,4,4,4)"/>
			<v:textRect cx="-31.5" cy="603" width="48.27" height="17.6036"/>
			<path d="M0 603 L-63 603" class="st5"/>
			<rect v:rectContext="textBkgnd" x="-50.7245" y="598.2" width="38.4491" height="9.59985" class="st7"/>
			<text x="-50.72" y="605.4" class="st8" v:langID="1033"><v:paragraph v:horizAlign="1"/><v:tabList/>&#60;&#60;extend&#62;&#62;</text>		</g>
		<g id="group47-66" transform="translate(156.375,-438.75)" v:mID="47" v:groupContext="group">
			<title>Sheet.47</title>
			<g id="shape7-67" v:mID="7" v:groupContext="shape">
				<title>Use Case.7</title>
				<desc>Modify Account</desc>
				<v:userDefs>
					<v:ud v:nameU="visVersion" v:prompt="" v:val="VT0(15):26"/>
				</v:userDefs>
				<v:textBlock v:margins="rect(4,4,4,4)"/>
				<v:textRect cx="54" cy="594" width="108" height="36"/>
				<ellipse cx="54" cy="594" rx="54" ry="18" class="st3"/>
				<text x="15.25" y="597.6" class="st4" v:langID="1033"><v:paragraph v:horizAlign="1"/><v:tabList/>Modify Account</text>			</g>
			<g id="shape44-70" v:mID="44" v:groupContext="shape" transform="translate(171,0)">
				<title>Use Case.44</title>
				<desc>Delete Account</desc>
				<v:userDefs>
					<v:ud v:nameU="visVersion" v:prompt="" v:val="VT0(15):26"/>
				</v:userDefs>
				<v:textBlock v:margins="rect(4,4,4,4)"/>
				<v:textRect cx="54" cy="594" width="108" height="36"/>
				<ellipse cx="54" cy="594" rx="54" ry="18" class="st3"/>
				<text x="16.58" y="597.6" class="st4" v:langID="1033"><v:paragraph v:horizAlign="1"/><v:tabList/>Delete Account</text>			</g>
		</g>
		<g id="shape51-73" v:mID="51" v:groupContext="shape" v:layerMember="0" transform="translate(527.598,-348.75)">
			<title>Include.51</title>
			<desc>&#60;&#60;include&#62;&#62;</desc>
			<v:userDefs>
				<v:ud v:nameU="visVersion" v:prompt="" v:val="VT0(15):26"/>
			</v:userDefs>
			<v:textBlock v:margins="rect(4,4,4,4)"/>
			<v:textRect cx="38.2774" cy="603" width="49.4" height="17.6036"/>
			<path d="M0 606.83 L76.55 599.17" class="st5"/>
			<rect v:rectContext="textBkgnd" x="18.4866" y="598.2" width="39.5818" height="9.59985" class="st7"/>
			<text x="18.49" y="605.4" class="st8" v:langID="1033"><v:paragraph v:horizAlign="1"/><v:tabList/>&#60;&#60;include&#62;&#62;</text>		</g>
		<g id="shape52-80" v:mID="52" v:groupContext="shape" v:layerMember="0" transform="translate(525.119,-344.25)">
			<title>Include.52</title>
			<desc>&#60;&#60;include&#62;&#62;</desc>
			<v:userDefs>
				<v:ud v:nameU="visVersion" v:prompt="" v:val="VT0(15):26"/>
			</v:userDefs>
			<v:textBlock v:margins="rect(4,4,4,4)"/>
			<v:textRect cx="40.7562" cy="621" width="49.4" height="17.6036"/>
			<path d="M0 614.89 L81.51 627.11" class="st5"/>
			<rect v:rectContext="textBkgnd" x="20.9654" y="616.2" width="39.5818" height="9.59985" class="st7"/>
			<text x="20.97" y="623.4" class="st8" v:langID="1033"><v:paragraph v:horizAlign="1"/><v:tabList/>&#60;&#60;include&#62;&#62;</text>		</g>
		<g id="shape53-87" v:mID="53" v:groupContext="shape" v:layerMember="0" transform="translate(392.549,-177.75)">
			<title>Extend.53</title>
			<desc>&#60;&#60;extend&#62;&#62;</desc>
			<v:userDefs>
				<v:ud v:nameU="visVersion" v:prompt="" v:val="VT0(15):26"/>
			</v:userDefs>
			<v:textBlock v:margins="rect(4,4,4,4)"/>
			<v:textRect cx="-40.4242" cy="603" width="48.27" height="17.6036"/>
			<path d="M0 606.94 L-80.85 599.06" class="st5"/>
			<rect v:rectContext="textBkgnd" x="-59.6486" y="598.2" width="38.4491" height="9.59985" class="st7"/>
			<text x="-59.65" y="605.4" class="st8" v:langID="1033"><v:paragraph v:horizAlign="1"/><v:tabList/>&#60;&#60;extend&#62;&#62;</text>		</g>
		<g id="shape55-94" v:mID="55" v:groupContext="shape" v:layerMember="0" transform="translate(601.875,-168.75)">
			<title>Extend.55</title>
			<desc>&#60;&#60;extend&#62;&#62;</desc>
			<v:userDefs>
				<v:ud v:nameU="visVersion" v:prompt="" v:val="VT0(15):26"/>
			</v:userDefs>
			<v:textBlock v:margins="rect(4,4,4,4)"/>
			<v:textRect cx="-51.75" cy="603" width="48.27" height="17.6036"/>
			<path d="M0 603 L-103.5 603" class="st5"/>
			<rect v:rectContext="textBkgnd" x="-70.9745" y="598.2" width="38.4491" height="9.59985" class="st7"/>
			<text x="-70.97" y="605.4" class="st8" v:langID="1033"><v:paragraph v:horizAlign="1"/><v:tabList/>&#60;&#60;extend&#62;&#62;</text>		</g>
		<g id="shape56-101" v:mID="56" v:groupContext="shape" transform="translate(82.125,-301.5)">
			<title>Actor.56</title>
			<desc>Group Owner</desc>
			<v:userDefs>
				<v:ud v:nameU="visVersion" v:prompt="" v:val="VT0(15):26"/>
			</v:userDefs>
			<v:textBlock v:margins="rect(4,4,4,4)"/>
			<v:textRect cx="18" cy="623.202" width="77.11" height="22.4037"/>
			<path d="M7.2 612 L7.2 576 L7.2 590.4 L0 590.4 L0 561.6 L3.6 558 L32.4 558 L36 561.6 L36 590.4 L28.8 590.4 L28.8 576
						 L28.8 612 L18 612 L18 583.2 L18 612 L7.2 612 ZM25.2 547.2 A7.2 7.2 -180 1 0 10.8 547.2 A7.2 7.2 -180 1 0
						 25.2 547.2 Z" class="st1"/>
			<text x="-15.19" y="626.8" class="st2" v:langID="1033"><v:paragraph v:horizAlign="1"/><v:tabList/>Group Owner</text>		</g>
		<g id="shape57-104" v:mID="57" v:groupContext="shape" transform="translate(82.125,-58.5)">
			<title>Actor.57</title>
			<desc>Group Member</desc>
			<v:userDefs>
				<v:ud v:nameU="visVersion" v:prompt="" v:val="VT0(15):26"/>
			</v:userDefs>
			<v:textBlock v:margins="rect(4,4,4,4)"/>
			<v:textRect cx="18" cy="623.202" width="86.4" height="22.4037"/>
			<path d="M7.2 612 L7.2 576 L7.2 590.4 L0 590.4 L0 561.6 L3.6 558 L32.4 558 L36 561.6 L36 590.4 L28.8 590.4 L28.8 576
						 L28.8 612 L18 612 L18 583.2 L18 612 L7.2 612 ZM25.2 547.2 A7.2 7.2 -180 1 0 10.8 547.2 A7.2 7.2 -180 1 0
						 25.2 547.2 Z" class="st1"/>
			<text x="-19.84" y="626.8" class="st2" v:langID="1033"><v:paragraph v:horizAlign="1"/><v:tabList/>Group Member</text>		</g>
		<g id="shape58-107" v:mID="58" v:groupContext="shape" transform="translate(82.125,-180)">
			<title>Actor.58</title>
			<desc>Receipt Creator</desc>
			<v:userDefs>
				<v:ud v:nameU="visVersion" v:prompt="" v:val="VT0(15):26"/>
			</v:userDefs>
			<v:textBlock v:margins="rect(4,4,4,4)"/>
			<v:textRect cx="18" cy="623.202" width="86.88" height="22.4037"/>
			<path d="M7.2 612 L7.2 576 L7.2 590.4 L0 590.4 L0 561.6 L3.6 558 L32.4 558 L36 561.6 L36 590.4 L28.8 590.4 L28.8 576
						 L28.8 612 L18 612 L18 583.2 L18 612 L7.2 612 ZM25.2 547.2 A7.2 7.2 -180 1 0 10.8 547.2 A7.2 7.2 -180 1 0
						 25.2 547.2 Z" class="st1"/>
			<text x="-20.08" y="626.8" class="st2" v:langID="1033"><v:paragraph v:horizAlign="1"/><v:tabList/>Receipt Creator</text>		</g>
		<g id="shape59-110" v:mID="59" v:groupContext="shape" v:layerMember="0" transform="translate(112.287,-474.75)">
			<title>Association</title>
			<v:userDefs>
				<v:ud v:nameU="visVersion" v:prompt="" v:val="VT0(15):26"/>
			</v:userDefs>
			<path d="M0 612 L32.22 564.31" class="st9"/>
		</g>
		<g id="shape60-113" v:mID="60" v:groupContext="shape" v:layerMember="0" transform="translate(118.125,-447.75)">
			<title>Association.60</title>
			<v:userDefs>
				<v:ud v:nameU="visVersion" v:prompt="" v:val="VT0(15):26"/>
			</v:userDefs>
			<path d="M0 603 L38.25 603" class="st9"/>
		</g>
		<g id="shape61-116" v:mID="61" v:groupContext="shape" v:layerMember="0" transform="translate(118.125,-332.898)">
			<title>Association.61</title>
			<v:userDefs>
				<v:ud v:nameU="visVersion" v:prompt="" v:val="VT0(15):26"/>
			</v:userDefs>
			<path d="M0 606.13 L88.92 599.87" class="st9"/>
		</g>
		<g id="shape63-119" v:mID="63" v:groupContext="shape" v:layerMember="0" transform="translate(118.125,-329.894)">
			<title>Association.63</title>
			<v:userDefs>
				<v:ud v:nameU="visVersion" v:prompt="" v:val="VT0(15):26"/>
			</v:userDefs>
			<path d="M0 612 L108.3 657.76" class="st9"/>
		</g>
		<g id="shape64-122" v:mID="64" v:groupContext="shape" v:layerMember="0" transform="translate(118.125,-222.085)">
			<title>Association.64</title>
			<v:userDefs>
				<v:ud v:nameU="visVersion" v:prompt="" v:val="VT0(15):26"/>
			</v:userDefs>
			<path d="M0 612 L103.83 576.9" class="st9"/>
		</g>
		<g id="shape65-125" v:mID="65" v:groupContext="shape" v:layerMember="0" transform="translate(118.125,-85.5)">
			<title>Association.65</title>
			<v:userDefs>
				<v:ud v:nameU="visVersion" v:prompt="" v:val="VT0(15):26"/>
			</v:userDefs>
			<path d="M0 603 L87.75 603" class="st9"/>
		</g>
		<g id="shape66-128" v:mID="66" v:groupContext="shape" v:layerMember="0" transform="translate(118.125,-216.933)">
			<title>Association.66</title>
			<v:userDefs>
				<v:ud v:nameU="visVersion" v:prompt="" v:val="VT0(15):26"/>
			</v:userDefs>
			<path d="M0 615.21 L91.28 626.79" class="st9"/>
		</g>
		<g id="group67-131" transform="translate(205.875,-159.75)" v:mID="67" v:groupContext="group">
			<title>Sheet.67</title>
			<g id="shape12-132" v:mID="12" v:groupContext="shape" transform="translate(184.5,0)">
				<title>Use Case.12</title>
				<desc>Assign Items</desc>
				<v:userDefs>
					<v:ud v:nameU="visVersion" v:prompt="" v:val="VT0(15):26"/>
				</v:userDefs>
				<v:textBlock v:margins="rect(4,4,4,4)"/>
				<v:textRect cx="54" cy="594" width="108" height="36"/>
				<ellipse cx="54" cy="594" rx="54" ry="18" class="st3"/>
				<text x="23.48" y="597.6" class="st4" v:langID="1033"><v:paragraph v:horizAlign="1"/><v:tabList/>Assign Items</text>			</g>
			<g id="shape10-135" v:mID="10" v:groupContext="shape" transform="translate(0,-18)">
				<title>Use Case.10</title>
				<desc>Add Receipt</desc>
				<v:userDefs>
					<v:ud v:nameU="visVersion" v:prompt="" v:val="VT0(15):26"/>
				</v:userDefs>
				<v:textBlock v:margins="rect(4,4,4,4)"/>
				<v:textRect cx="54" cy="594" width="108" height="36"/>
				<ellipse cx="54" cy="594" rx="54" ry="18" class="st3"/>
				<text x="24.56" y="597.6" class="st4" v:langID="1033"><v:paragraph v:horizAlign="1"/><v:tabList/>Add Receipt</text>			</g>
			<g id="shape11-138" v:mID="11" v:groupContext="shape" transform="translate(184.5,-38.25)">
				<title>Use Case.11</title>
				<desc>Modify Receipt</desc>
				<v:userDefs>
					<v:ud v:nameU="visVersion" v:prompt="" v:val="VT0(15):26"/>
				</v:userDefs>
				<v:textBlock v:margins="rect(4,4,4,4)"/>
				<v:textRect cx="54" cy="594" width="108" height="36"/>
				<ellipse cx="54" cy="594" rx="54" ry="18" class="st3"/>
				<text x="16.97" y="597.6" class="st4" v:langID="1033"><v:paragraph v:horizAlign="1"/><v:tabList/>Modify Receipt</text>			</g>
			<g id="shape54-141" v:mID="54" v:groupContext="shape" transform="translate(396,0)">
				<title>Use Case.54</title>
				<desc>Select Split Criteria</desc>
				<v:userDefs>
					<v:ud v:nameU="visVersion" v:prompt="" v:val="VT0(15):26"/>
				</v:userDefs>
				<v:textBlock v:margins="rect(4,4,4,4)"/>
				<v:textRect cx="54" cy="594" width="108" height="36"/>
				<ellipse cx="54" cy="594" rx="54" ry="18" class="st3"/>
				<text x="7.96" y="597.6" class="st4" v:langID="1033"><v:paragraph v:horizAlign="1"/><v:tabList/>Select Split Criteria</text>			</g>
		</g>
		<g id="group68-144" transform="translate(205.875,-58.5)" v:mID="68" v:groupContext="group">
			<title>Sheet.68</title>
			<g id="shape13-145" v:mID="13" v:groupContext="shape" transform="translate(0,-18)">
				<title>Use Case.13</title>
				<desc>Payment</desc>
				<v:userDefs>
					<v:ud v:nameU="visVersion" v:prompt="" v:val="VT0(15):26"/>
				</v:userDefs>
				<v:textBlock v:margins="rect(4,4,4,4)"/>
				<v:textRect cx="54" cy="594" width="108" height="36"/>
				<ellipse cx="54" cy="594" rx="54" ry="18" class="st3"/>
				<text x="32.37" y="597.6" class="st4" v:langID="1033"><v:paragraph v:horizAlign="1"/><v:tabList/>Payment</text>			</g>
			<g id="shape31-148" v:mID="31" v:groupContext="shape" transform="translate(153,-45)">
				<title>Use Case</title>
				<desc>Pay with Venmo</desc>
				<v:userDefs>
					<v:ud v:nameU="visVersion" v:prompt="" v:val="VT0(15):26"/>
				</v:userDefs>
				<v:textBlock v:margins="rect(4,4,4,4)"/>
				<v:textRect cx="54" cy="594" width="108" height="36"/>
				<ellipse cx="54" cy="594" rx="54" ry="18" class="st3"/>
				<text x="14.27" y="597.6" class="st4" v:langID="1033"><v:paragraph v:horizAlign="1"/><v:tabList/>Pay with Venmo</text>			</g>
			<g id="shape32-151" v:mID="32" v:groupContext="shape" transform="translate(153,0)">
				<title>Use Case.32</title>
				<desc>Pay with cash</desc>
				<v:userDefs>
					<v:ud v:nameU="visVersion" v:prompt="" v:val="VT0(15):26"/>
				</v:userDefs>
				<v:textBlock v:margins="rect(4,4,4,4)"/>
				<v:textRect cx="54" cy="594" width="108" height="36"/>
				<ellipse cx="54" cy="594" rx="54" ry="18" class="st3"/>
				<text x="20.86" y="597.6" class="st4" v:langID="1033"><v:paragraph v:horizAlign="1"/><v:tabList/>Pay with cash</text>			</g>
			<g id="shape33-154" v:mID="33" v:groupContext="shape" v:layerMember="0" transform="translate(159.275,-58.5)">
				<title>Generalization</title>
				<v:userDefs>
					<v:ud v:nameU="visVersion" v:prompt="" v:val="VT0(15):26"/>
				</v:userDefs>
				<path d="M0 615.92 L-48.63 624.5" class="st10"/>
			</g>
			<g id="shape34-160" v:mID="34" v:groupContext="shape" v:layerMember="0" transform="translate(156.079,-18)">
				<title>Generalization.34</title>
				<v:userDefs>
					<v:ud v:nameU="visVersion" v:prompt="" v:val="VT0(15):26"/>
				</v:userDefs>
				<path d="M0 606.01 L-42.16 601.05" class="st10"/>
			</g>
		</g>
		<g id="group69-165" transform="translate(205.875,-303.75)" v:mID="69" v:groupContext="group">
			<title>Sheet.69</title>
			<g id="shape25-166" v:mID="25" v:groupContext="shape" v:layerMember="0" transform="translate(216,-36)">
				<title>Extend.25</title>
				<desc>&#60;&#60;extend&#62;&#62;</desc>
				<v:userDefs>
					<v:ud v:nameU="visVersion" v:prompt="" v:val="VT0(15):26"/>
				</v:userDefs>
				<v:textBlock v:margins="rect(4,4,4,4)"/>
				<v:textRect cx="-54" cy="603" width="48.27" height="17.6036"/>
				<path d="M0 603 L-108 603" class="st5"/>
				<rect v:rectContext="textBkgnd" x="-73.2245" y="598.2" width="38.4491" height="9.59985" class="st7"/>
				<text x="-73.22" y="605.4" class="st8" v:langID="1033"><v:paragraph v:horizAlign="1"/><v:tabList/>&#60;&#60;extend&#62;&#62;</text>			</g>
			<g id="group26-173" transform="translate(0,-27)" v:mID="26" v:groupContext="group">
				<title>Sheet.26</title>
				<g id="shape8-174" v:mID="8" v:groupContext="shape">
					<title>Use Case.8</title>
					<desc>Create Group</desc>
					<v:userDefs>
						<v:ud v:nameU="visVersion" v:prompt="" v:val="VT0(15):26"/>
					</v:userDefs>
					<v:textBlock v:margins="rect(4,4,4,4)"/>
					<v:textRect cx="54" cy="594" width="108" height="36"/>
					<ellipse cx="54" cy="594" rx="54" ry="18" class="st3"/>
					<text x="21.15" y="597.6" class="st4" v:langID="1033"><v:paragraph v:horizAlign="1"/><v:tabList/>Create Group</text>				</g>
				<g id="shape9-177" v:mID="9" v:groupContext="shape" transform="translate(216,0)">
					<title>Use Case.9</title>
					<desc>Manage Group</desc>
					<v:userDefs>
						<v:ud v:nameU="visVersion" v:prompt="" v:val="VT0(15):26"/>
					</v:userDefs>
					<v:textBlock v:margins="rect(4,4,4,4)"/>
					<v:textRect cx="54" cy="594" width="108" height="36"/>
					<ellipse cx="54" cy="594" rx="54" ry="18" class="st3"/>
					<text x="17.46" y="597.6" class="st4" v:langID="1033"><v:paragraph v:horizAlign="1"/><v:tabList/>Manage Group</text>				</g>
			</g>
			<g id="shape49-180" v:mID="49" v:groupContext="shape" transform="translate(396,-45)">
				<title>Use Case.49</title>
				<desc>Delete Group</desc>
				<v:userDefs>
					<v:ud v:nameU="visVersion" v:prompt="" v:val="VT0(15):26"/>
				</v:userDefs>
				<v:textBlock v:margins="rect(4,4,4,4)"/>
				<v:textRect cx="54" cy="594" width="108" height="36"/>
				<ellipse cx="54" cy="594" rx="54" ry="18" class="st3"/>
				<text x="21.26" y="597.6" class="st4" v:langID="1033"><v:paragraph v:horizAlign="1"/><v:tabList/>Delete Group</text>			</g>
			<g id="shape50-183" v:mID="50" v:groupContext="shape" transform="translate(396,0)">
				<title>Use Case.50</title>
				<desc>Add New Users</desc>
				<v:userDefs>
					<v:ud v:nameU="visVersion" v:prompt="" v:val="VT0(15):26"/>
				</v:userDefs>
				<v:textBlock v:margins="rect(4,4,4,4)"/>
				<v:textRect cx="54" cy="594" width="108" height="36"/>
				<ellipse cx="54" cy="594" rx="54" ry="18" class="st3"/>
				<text x="16.74" y="597.6" class="st4" v:langID="1033"><v:paragraph v:horizAlign="1"/><v:tabList/>Add New Users</text>			</g>
		</g>
		<g id="shape75-186" v:mID="75" v:groupContext="shape" transform="translate(279,-567)">
			<title>Sheet.75</title>
			<desc>Split-It</desc>
			<v:textBlock v:margins="rect(4,4,4,4)"/>
			<v:textRect cx="112.5" cy="603" width="225" height="18"/>
			<rect x="0" y="594" width="225" height="18" class="st11"/>
			<text x="96.47" y="606.6" class="st12" v:langID="1033"><v:paragraph v:horizAlign="1"/><v:tabList/>Split-It</text>		</g>
	</g>
</svg>
